<svg id="Livello_1" data-name="Livello 1" xmlns="http://www.w3.org/2000/svg" xmlns:xlink="http://www.w3.org/1999/xlink" viewBox="0 0 500 500"><defs><style>.cls-1{fill:url(#Sfumatura_senza_nome);}.cls-2{fill:#fff;}</style><linearGradient id="Sfumatura_senza_nome" x1="460.08" y1="-8.54" x2="26.59" y2="524.95" gradientUnits="userSpaceOnUse"><stop offset="0" stop-color="#37aee2"/><stop offset="1" stop-color="#1e96c8"/></linearGradient></defs><title>Telegram_2019_Logo</title><rect class="cls-1" width="500" height="500"/><path class="cls-2" d="M105.39,247.43l169.19-69.7c16.73-7.29,73.31-30.48,73.31-30.48s26.17-10.14,23.95,14.51c-.69,10.14-6.52,45.75-12.36,84.21L341.29,360s-1.45,16.73-13.81,19.58-32.7-10.14-36.31-13.05c-2.92-2.16-54.5-34.86-73.31-50.82-5.07-4.38-10.9-13.06.69-23.26,26.17-23.95,57.35-53.74,76.23-72.62,8.75-8.75,17.42-29-18.88-4.37l-102.41,69s-11.59,7.29-33.39.7-47.21-15.27-47.21-15.27S75.6,259,105.39,247.43Z" transform="translate(0 0)"/></svg>