<?xml version="1.0" encoding="utf-8"?>
<!-- Generator: Adobe Illustrator 24.0.1, SVG Export Plug-In . SVG Version: 6.00 Build 0)  -->
<svg version="1.1" id="Livello_1" xmlns="http://www.w3.org/2000/svg" xmlns:xlink="http://www.w3.org/1999/xlink" x="0px" y="0px"
	 viewBox="0 0 1966.56 570.24" enable-background="new 0 0 1966.56 570.24" xml:space="preserve">
<g>
	<path fill="#262626" d="M1924.32,15c15.02,0,27.24,12.22,27.24,27.24V528c0,15.02-12.22,27.24-27.24,27.24H42.24
		C27.22,555.24,15,543.02,15,528V42.24C15,27.22,27.22,15,42.24,15H1924.32 M1924.32,0H42.24C18.91,0,0,18.91,0,42.24V528
		c0,23.33,18.91,42.24,42.24,42.24h1882.09c23.33,0,42.24-18.91,42.24-42.24V42.24C1966.56,18.91,1947.65,0,1924.32,0L1924.32,0z"/>
</g>
<line fill="none" stroke="#262626" stroke-width="20.905" stroke-linecap="round" stroke-linejoin="round" x1="354.47" y1="134.71" x2="354.47" y2="377.5"/>
<line fill="none" stroke="#262626" stroke-width="20.905" stroke-linecap="round" stroke-linejoin="round" x1="236.17" y1="278.23" x2="354.47" y2="377.5"/>
<line fill="none" stroke="#262626" stroke-width="20.905" stroke-linecap="round" stroke-linejoin="round" x1="354.47" y1="377.5" x2="472.77" y2="278.23"/>
<line fill="none" stroke="#262626" stroke-width="20.905" stroke-linecap="round" stroke-linejoin="round" x1="236.17" y1="436.53" x2="472.77" y2="436.53"/>
<g>
	<path d="M800.36,236.49V97.51h47.88c10.81,0,19.06,0.66,24.74,1.99c7.96,1.83,14.76,5.15,20.38,9.95
		c7.33,6.19,12.81,14.11,16.45,23.75c3.63,9.64,5.45,20.65,5.45,33.04c0,10.56-1.23,19.91-3.7,28.06s-5.63,14.9-9.48,20.24
		c-3.86,5.34-8.07,9.54-12.66,12.61c-4.58,3.07-10.11,5.39-16.59,6.97c-6.48,1.58-13.92,2.37-22.33,2.37H800.36z M818.75,220.09
		h29.67c9.16,0,16.35-0.85,21.57-2.56s9.37-4.11,12.47-7.21c4.36-4.36,7.76-10.22,10.19-17.59c2.43-7.36,3.65-16.29,3.65-26.78
		c0-14.54-2.39-25.71-7.16-33.51c-4.77-7.8-10.57-13.04-17.4-15.69c-4.93-1.9-12.86-2.84-23.8-2.84h-29.2V220.09z"/>
	<path d="M932.04,186.15c0-18.64,5.18-32.45,15.55-41.43c8.66-7.46,19.21-11.19,31.66-11.19c13.84,0,25.15,4.54,33.94,13.6
		c8.78,9.07,13.18,21.6,13.18,37.59c0,12.96-1.94,23.15-5.83,30.57c-3.89,7.43-9.54,13.19-16.97,17.3
		c-7.43,4.11-15.53,6.16-24.32,6.16c-14.09,0-25.49-4.52-34.18-13.56C936.39,216.17,932.04,203.16,932.04,186.15z M949.58,186.15
		c0,12.89,2.81,22.55,8.44,28.96c5.63,6.42,12.7,9.62,21.24,9.62c8.47,0,15.52-3.22,21.14-9.67c5.62-6.45,8.44-16.27,8.44-29.48
		c0-12.45-2.83-21.88-8.49-28.3c-5.66-6.41-12.69-9.62-21.09-9.62c-8.53,0-15.61,3.19-21.24,9.58
		C952.39,163.62,949.58,173.26,949.58,186.15z"/>
	<path d="M1064.96,236.49l-30.81-100.68h17.63l16.02,58.12l5.97,21.62c0.25-1.07,1.99-7.99,5.21-20.76l16.02-58.97h17.54l15.07,58.4
		l5.02,19.25l5.78-19.43l17.25-58.21h16.59l-31.47,100.68h-17.73l-16.02-60.3l-3.89-17.16l-20.38,77.46H1064.96z"/>
	<path d="M1186.59,236.49V135.81h15.36v14.32c7.39-11.06,18.07-16.59,32.04-16.59c6.07,0,11.64,1.09,16.73,3.27
		c5.09,2.18,8.9,5.04,11.42,8.58c2.53,3.54,4.3,7.74,5.31,12.61c0.63,3.16,0.95,8.69,0.95,16.59v61.91h-17.06v-61.24
		c0-6.95-0.66-12.15-1.99-15.6c-1.33-3.44-3.68-6.19-7.06-8.25c-3.38-2.05-7.35-3.08-11.9-3.08c-7.27,0-13.54,2.31-18.82,6.92
		c-5.28,4.61-7.92,13.37-7.92,26.26v54.99H1186.59z"/>
	<path d="M1294.19,236.49V97.51h17.07v138.98H1294.19z"/>
	<path d="M1331.36,186.15c0-18.64,5.18-32.45,15.55-41.43c8.66-7.46,19.21-11.19,31.67-11.19c13.84,0,25.15,4.54,33.94,13.6
		c8.78,9.07,13.18,21.6,13.18,37.59c0,12.96-1.94,23.15-5.83,30.57c-3.89,7.43-9.54,13.19-16.97,17.3
		c-7.43,4.11-15.53,6.16-24.32,6.16c-14.09,0-25.49-4.52-34.18-13.56C1335.7,216.17,1331.36,203.16,1331.36,186.15z M1348.9,186.15
		c0,12.89,2.81,22.55,8.44,28.96c5.63,6.42,12.7,9.62,21.24,9.62c8.47,0,15.52-3.22,21.14-9.67c5.62-6.45,8.44-16.27,8.44-29.48
		c0-12.45-2.83-21.88-8.49-28.3c-5.66-6.41-12.69-9.62-21.09-9.62c-8.53,0-15.61,3.19-21.24,9.58
		C1351.71,163.62,1348.9,173.26,1348.9,186.15z"/>
	<path d="M1511.39,224.07c-6.32,5.37-12.4,9.17-18.25,11.38c-5.85,2.21-12.12,3.32-18.82,3.32c-11.06,0-19.56-2.7-25.5-8.11
		c-5.94-5.4-8.91-12.31-8.91-20.71c0-4.93,1.12-9.43,3.37-13.51c2.24-4.08,5.18-7.35,8.82-9.81c3.63-2.46,7.73-4.33,12.28-5.59
		c3.35-0.88,8.41-1.74,15.17-2.56c13.78-1.64,23.92-3.6,30.43-5.88c0.06-2.34,0.09-3.82,0.09-4.46c0-6.95-1.61-11.85-4.83-14.69
		c-4.36-3.85-10.84-5.78-19.44-5.78c-8.03,0-13.95,1.41-17.78,4.22c-3.83,2.81-6.65,7.79-8.49,14.93l-16.69-2.28
		c1.52-7.14,4.01-12.91,7.49-17.3c3.47-4.39,8.5-7.77,15.07-10.14c6.57-2.37,14.19-3.56,22.85-3.56c8.59,0,15.58,1.01,20.95,3.03
		c5.37,2.02,9.32,4.57,11.85,7.63c2.53,3.07,4.3,6.94,5.31,11.61c0.57,2.91,0.85,8.15,0.85,15.74v22.75c0,15.86,0.36,25.9,1.09,30.1
		c0.73,4.2,2.16,8.23,4.31,12.09h-17.82C1513.03,232.96,1511.9,228.81,1511.39,224.07z M1509.97,185.96
		c-6.2,2.53-15.49,4.68-27.87,6.45c-7.02,1.01-11.98,2.15-14.88,3.41c-2.91,1.27-5.15,3.11-6.73,5.55
		c-1.58,2.43-2.37,5.14-2.37,8.11c0,4.55,1.72,8.34,5.17,11.38c3.44,3.03,8.49,4.55,15.12,4.55c6.57,0,12.42-1.44,17.54-4.31
		c5.12-2.88,8.88-6.81,11.28-11.8c1.83-3.85,2.75-9.54,2.75-17.06V185.96z"/>
	<path d="M1618.99,236.49v-12.7c-6.38,9.99-15.77,14.98-28.16,14.98c-8.03,0-15.41-2.21-22.14-6.64
		c-6.73-4.42-11.95-10.6-15.64-18.53c-3.7-7.93-5.55-17.05-5.55-27.35c0-10.05,1.67-19.17,5.02-27.35
		c3.35-8.18,8.37-14.46,15.07-18.82s14.19-6.54,22.47-6.54c6.07,0,11.47,1.28,16.21,3.84c4.74,2.56,8.59,5.89,11.57,10V97.51h16.97
		v138.98H1618.99z M1565.05,186.25c0,12.89,2.72,22.53,8.15,28.92c5.44,6.38,11.85,9.58,19.25,9.58c7.46,0,13.79-3.05,19.01-9.15
		c5.21-6.1,7.82-15.41,7.82-27.92c0-13.78-2.65-23.89-7.96-30.34c-5.31-6.45-11.85-9.67-19.62-9.67c-7.58,0-13.92,3.1-19.01,9.29
		C1567.59,163.15,1565.05,172.91,1565.05,186.25z"/>
	<path d="M654.74,469.49V330.5h52.43c9.23,0,16.27,0.44,21.14,1.33c6.83,1.14,12.54,3.3,17.16,6.49c4.61,3.19,8.33,7.67,11.14,13.42
		c2.81,5.75,4.22,12.07,4.22,18.96c0,11.82-3.76,21.82-11.28,30.01c-7.52,8.19-21.11,12.28-40.77,12.28h-35.65v56.5H654.74z
		 M673.13,396.58h35.93c11.88,0,20.32-2.21,25.31-6.64c4.99-4.42,7.49-10.65,7.49-18.68c0-5.81-1.47-10.79-4.41-14.93
		c-2.94-4.14-6.81-6.87-11.61-8.2c-3.1-0.82-8.82-1.23-17.16-1.23h-35.55V396.58z"/>
	<path d="M784.24,469.49V330.5h47.88c10.81,0,19.06,0.66,24.74,1.99c7.96,1.83,14.76,5.15,20.38,9.95
		c7.33,6.2,12.81,14.11,16.45,23.75c3.63,9.64,5.45,20.65,5.45,33.04c0,10.56-1.23,19.91-3.7,28.06c-2.46,8.15-5.63,14.9-9.48,20.24
		c-3.86,5.34-8.07,9.54-12.66,12.61c-4.58,3.07-10.11,5.39-16.59,6.97c-6.48,1.58-13.92,2.37-22.33,2.37H784.24z M802.63,453.08
		h29.67c9.16,0,16.35-0.85,21.57-2.56c5.21-1.71,9.37-4.11,12.47-7.21c4.36-4.36,7.76-10.22,10.19-17.59
		c2.43-7.36,3.65-16.29,3.65-26.78c0-14.54-2.39-25.71-7.16-33.51c-4.77-7.8-10.57-13.04-17.4-15.69c-4.93-1.9-12.86-2.84-23.8-2.84
		h-29.2V453.08z"/>
	<path d="M925.41,469.49V330.5h93.76v16.4H943.8v43.04h65.23v16.4H943.8v63.14H925.41z"/>
	<path d="M1174.27,453.08c-5.63,6.26-11.75,10.95-18.39,14.08c-6.64,3.13-13.81,4.69-21.52,4.69c-14.22,0-25.5-4.8-33.84-14.41
		c-6.76-7.84-10.14-16.59-10.14-26.26c0-8.59,2.76-16.35,8.29-23.27c5.53-6.92,13.79-13,24.79-18.25
		c-6.26-7.21-10.43-13.05-12.51-17.54c-2.08-4.49-3.13-8.82-3.13-12.99c0-8.34,3.27-15.59,9.81-21.76
		c6.54-6.16,14.77-9.24,24.7-9.24c9.48,0,17.24,2.91,23.27,8.72c6.03,5.82,9.05,12.8,9.05,20.95c0,13.21-8.75,24.49-26.26,33.85
		l24.93,31.76c2.84-5.56,5.06-12.01,6.64-19.34l17.73,3.79c-3.03,12.13-7.14,22.12-12.32,29.96c6.38,8.47,13.62,15.58,21.71,21.33
		l-11.47,13.56C1188.71,468.29,1181.6,461.74,1174.27,453.08z M1163.55,439.62l-31.29-38.78c-9.23,5.5-15.45,10.6-18.68,15.31
		c-3.22,4.71-4.84,9.37-4.84,13.98c0,5.63,2.24,11.47,6.73,17.54c4.49,6.07,10.84,9.1,19.06,9.1c5.12,0,10.41-1.59,15.88-4.79
		C1155.89,448.8,1160.27,444.68,1163.55,439.62z M1139.57,380.65c7.4-4.36,12.18-8.18,14.36-11.47c2.18-3.29,3.27-6.92,3.27-10.9
		c0-4.74-1.5-8.61-4.5-11.61c-3-3-6.75-4.5-11.23-4.5c-4.61,0-8.45,1.49-11.52,4.46c-3.07,2.97-4.6,6.61-4.6,10.9
		c0,2.15,0.55,4.41,1.66,6.78c1.11,2.37,2.76,4.88,4.98,7.54L1139.57,380.65z"/>
	<path d="M1279.69,469.49V330.5h18.39v122.58h68.45v16.4H1279.69z"/>
	<path d="M1379.9,419.14c0-18.64,5.18-32.45,15.55-41.43c8.66-7.46,19.21-11.19,31.67-11.19c13.84,0,25.15,4.54,33.94,13.6
		c8.78,9.07,13.18,21.6,13.18,37.59c0,12.96-1.94,23.15-5.83,30.57c-3.89,7.43-9.54,13.19-16.97,17.3
		c-7.43,4.11-15.53,6.16-24.32,6.16c-14.09,0-25.49-4.52-34.18-13.56C1384.24,449.17,1379.9,436.15,1379.9,419.14z M1397.44,419.14
		c0,12.89,2.81,22.55,8.44,28.96c5.63,6.42,12.7,9.62,21.24,9.62c8.47,0,15.52-3.22,21.14-9.67c5.62-6.45,8.44-16.27,8.44-29.48
		c0-12.45-2.83-21.88-8.49-28.3c-5.66-6.41-12.69-9.62-21.09-9.62c-8.53,0-15.61,3.19-21.24,9.58
		C1400.25,396.61,1397.44,406.25,1397.44,419.14z"/>
	<path d="M1491.1,477.83l16.59,2.46c0.69,5.12,2.62,8.85,5.78,11.19c4.23,3.16,10.02,4.74,17.35,4.74c7.9,0,14-1.58,18.3-4.74
		c4.3-3.16,7.21-7.58,8.72-13.27c0.88-3.48,1.29-10.77,1.23-21.9c-7.46,8.79-16.75,13.18-27.87,13.18
		c-13.84,0-24.55-4.99-32.14-14.98c-7.58-9.99-11.38-21.96-11.38-35.93c0-9.61,1.74-18.47,5.21-26.59
		c3.47-8.12,8.52-14.39,15.12-18.82c6.6-4.42,14.36-6.64,23.27-6.64c11.88,0,21.68,4.8,29.39,14.41V368.8h15.74v87.03
		c0,15.67-1.6,26.78-4.79,33.32c-3.19,6.54-8.25,11.71-15.17,15.5c-6.92,3.79-15.44,5.69-25.55,5.69c-12.01,0-21.71-2.7-29.11-8.11
		S1490.85,488.7,1491.1,477.83z M1505.23,417.34c0,13.21,2.62,22.85,7.87,28.92c5.25,6.07,11.82,9.1,19.72,9.1
		c7.84,0,14.41-3.02,19.72-9.05c5.31-6.04,7.96-15.5,7.96-28.39c0-12.33-2.73-21.62-8.2-27.87c-5.47-6.26-12.06-9.39-19.77-9.39
		c-7.58,0-14.03,3.08-19.34,9.24C1507.88,396.06,1505.23,405.21,1505.23,417.34z"/>
	<path d="M1595.86,419.14c0-18.64,5.18-32.45,15.55-41.43c8.66-7.46,19.21-11.19,31.67-11.19c13.84,0,25.15,4.54,33.94,13.6
		c8.78,9.07,13.18,21.6,13.18,37.59c0,12.96-1.94,23.15-5.83,30.57c-3.89,7.43-9.54,13.19-16.97,17.3
		c-7.43,4.11-15.53,6.16-24.32,6.16c-14.09,0-25.49-4.52-34.18-13.56C1600.21,449.17,1595.86,436.15,1595.86,419.14z M1613.4,419.14
		c0,12.89,2.81,22.55,8.44,28.96c5.63,6.42,12.7,9.62,21.24,9.62c8.47,0,15.52-3.22,21.14-9.67c5.62-6.45,8.44-16.27,8.44-29.48
		c0-12.45-2.83-21.88-8.49-28.3c-5.66-6.41-12.69-9.62-21.09-9.62c-8.53,0-15.61,3.19-21.24,9.58
		C1616.21,396.61,1613.4,406.25,1613.4,419.14z"/>
	<path d="M1703.37,439.43l16.88-2.65c0.95,6.76,3.59,11.95,7.92,15.55s10.38,5.4,18.16,5.4c7.84,0,13.65-1.6,17.44-4.79
		s5.69-6.94,5.69-11.23c0-3.85-1.67-6.89-5.02-9.1c-2.34-1.52-8.15-3.44-17.44-5.78c-12.51-3.16-21.19-5.89-26.02-8.2
		c-4.83-2.31-8.5-5.5-11-9.58c-2.5-4.08-3.75-8.58-3.75-13.51c0-4.49,1.03-8.64,3.08-12.47c2.05-3.82,4.85-7,8.39-9.53
		c2.65-1.96,6.27-3.62,10.86-4.98c4.58-1.36,9.5-2.04,14.74-2.04c7.9,0,14.84,1.14,20.81,3.41c5.97,2.28,10.38,5.36,13.22,9.24
		c2.84,3.89,4.8,9.09,5.88,15.59l-16.69,2.28c-0.76-5.18-2.96-9.23-6.59-12.13c-3.63-2.91-8.77-4.36-15.41-4.36
		c-7.84,0-13.43,1.3-16.78,3.89c-3.35,2.59-5.02,5.63-5.02,9.1c0,2.21,0.7,4.2,2.09,5.97c1.39,1.83,3.57,3.35,6.54,4.55
		c1.71,0.63,6.73,2.09,15.07,4.36c12.07,3.22,20.49,5.86,25.27,7.92c4.77,2.05,8.52,5.04,11.23,8.96c2.72,3.92,4.08,8.79,4.08,14.6
		c0,5.69-1.66,11.04-4.98,16.07c-3.32,5.02-8.11,8.91-14.36,11.66s-13.34,4.12-21.24,4.12c-13.08,0-23.05-2.72-29.91-8.15
		C1709.64,458.17,1705.27,450.11,1703.37,439.43z"/>
</g>
</svg>
