<svg id="Livello_1" data-name="Livello 1" xmlns="http://www.w3.org/2000/svg" xmlns:xlink="http://www.w3.org/1999/xlink" viewBox="0 0 500 500"><defs><style>.cls-1{fill:url(#Sfumatura_senza_nome);}.cls-2{fill:#fff;}</style><linearGradient id="Sfumatura_senza_nome" x1="-411.36" y1="684.88" x2="-447.4" y2="600.79" gradientTransform="matrix(3.47, 0, 0, -3.47, 1749.96, 2454.35)" gradientUnits="userSpaceOnUse"><stop offset="0" stop-color="#37aee2"/><stop offset="1" stop-color="#1e96c8"/></linearGradient></defs><title>Telegram_2019_Logo</title><circle class="cls-1" cx="250" cy="250" r="250"/><path class="cls-2" d="M104.05,247.83,272.4,178.47c16.62-7.23,73-30.35,73-30.35s26-10.11,23.84,14.45c-.72,10.12-6.5,45.52-12.28,83.82L338.87,359.83s-1.44,16.62-13.73,19.51-32.51-10.12-36.12-13c-2.89-2.17-54.19-34.68-73-50.58-5.06-4.33-10.84-13,.72-23.12,26-23.84,57.08-53.47,75.87-72.25,8.67-8.67,17.34-28.91-18.79-4.34L172,284.68s-11.57,7.23-33.24.72-47-15.17-47-15.17-17.34-10.84,12.29-22.4Z" transform="translate(0 0)"/></svg>