<svg id="Livello_1" data-name="Livello 1" xmlns="http://www.w3.org/2000/svg" xmlns:xlink="http://www.w3.org/1999/xlink" viewBox="0 0 500 500"><defs><style>.cls-1{fill:url(#Sfumatura_senza_nome);}.cls-2{fill:#fff;}</style><linearGradient id="Sfumatura_senza_nome" x1="323.28" y1="422.97" x2="198.28" y2="131.32" gradientTransform="matrix(1, 0, 0, -1, 0, 502)" gradientUnits="userSpaceOnUse"><stop offset="0" stop-color="#424d58"/><stop offset="1" stop-color="#272a2f"/></linearGradient></defs><title>Telegram_X_2019_Logo</title><circle class="cls-1" cx="250" cy="250" r="250"/><path class="cls-2" d="M104.05,247.83,272.4,178.47c16.62-7.23,73-30.35,73-30.35s26-10.11,23.84,14.45c-.72,10.12-6.5,45.52-12.28,83.82L338.88,359.82s-1.45,16.62-13.75,19.51-32.52-10.11-36.13-13c-2.89-2.16-54.19-34.68-73-50.57-5.06-4.34-10.83-13,.73-23.12,26-23.85,57.08-53.47,75.86-72.26,8.67-8.67,17.34-28.9-18.78-4.33L172,284.68s-11.56,7.23-33.24.72-47-15.17-47-15.17S74.4,259.39,104,247.84Z"/></svg>